<?xml version="1.0" standalone="no"?>
<!DOCTYPE svg PUBLIC "-//W3C//DTD SVG 20010904//EN"
 "http://www.w3.org/TR/2001/REC-SVG-20010904/DTD/svg10.dtd">
<svg version="1.0" xmlns="http://www.w3.org/2000/svg"
 width="300.000000pt" height="88.000000pt" viewBox="0 0 300.000000 88.000000"
 preserveAspectRatio="xMidYMid meet">
<metadata>
Created by potrace 1.10, written by Peter Selinger 2001-2011
</metadata>
<g transform="translate(0.000000,88.000000) scale(0.100000,-0.100000)"
fill="#000000" stroke="none">
<path d="M630 727 c-41 -18 -120 -53 -175 -77 -142 -62 -150 -71 -90 -96 33
-14 35 -17 35 -64 0 -30 -7 -61 -16 -75 -13 -20 -14 -28 -4 -40 9 -11 9 -29 0
-84 -15 -83 -10 -101 27 -101 49 0 52 8 37 85 -10 53 -11 77 -2 98 9 22 8 31
-6 46 -14 16 -24 101 -11 101 3 0 64 -29 135 -65 71 -36 139 -65 151 -65 28 0
59 18 59 34 0 7 7 36 16 65 17 59 75 129 126 154 l32 15 -35 15 c-19 8 -71 31
-116 51 -45 20 -83 36 -85 36 -1 0 -37 -15 -78 -33z m150 -37 c65 -33 77 -45
56 -57 -23 -14 -73 -96 -87 -143 -19 -70 -32 -75 -101 -40 -138 71 -174 88
-198 95 -39 12 -52 25 -37 39 15 15 277 135 295 136 7 0 39 -13 72 -30z"/>
<path d="M1240 730 c0 -27 3 -30 30 -30 27 0 30 3 30 30 0 27 -3 30 -30 30
-27 0 -30 -3 -30 -30z"/>
<path d="M1168 650 c3 -24 9 -30 28 -30 20 0 24 5 24 30 0 26 -4 30 -28 30
-26 0 -28 -3 -24 -30z"/>
<path d="M1240 650 c0 -27 3 -30 30 -30 27 0 30 3 30 30 0 27 -3 30 -30 30
-27 0 -30 -3 -30 -30z"/>
<path d="M995 598 c-39 -84 -37 -88 45 -88 82 0 85 6 44 88 -35 70 -57 70 -89
0z m66 -19 c9 -17 8 -25 -6 -38 -15 -15 -17 -15 -30 2 -15 21 -9 57 11 57 7 0
18 -10 25 -21z"/>
<path d="M921 608 c-29 -18 -62 -48 -73 -65 l-20 -33 55 0 c53 0 56 1 62 30 4
16 17 45 30 65 31 44 16 45 -54 3z"/>
<path d="M1094 621 c10 -11 23 -39 30 -63 l13 -43 59 -3 c32 -2 55 0 50 5 -4
4 -26 8 -49 8 l-42 0 -3 47 c-3 42 -6 47 -34 57 -42 15 -44 14 -24 -8z"/>
<path d="M1170 573 c0 -23 5 -28 25 -29 21 -2 25 2 25 27 0 24 -4 29 -25 29
-21 0 -25 -5 -25 -27z"/>
<path d="M817 483 c-9 -8 -9 -110 -1 -140 6 -21 13 -23 66 -23 l60 0 -7 33
c-4 17 -12 38 -17 45 -7 8 -7 16 -1 25 6 6 13 24 17 40 l6 27 -58 0 c-32 0
-62 -3 -65 -7z m73 -72 c6 -55 2 -65 -23 -55 -19 7 -40 62 -30 78 31 49 47 43
53 -23z"/>
<path d="M960 464 c0 -14 5 -34 10 -44 7 -13 7 -21 0 -25 -5 -3 -10 -22 -10
-41 l0 -34 80 0 80 0 0 33 c0 18 -5 38 -12 45 -9 9 -9 15 0 24 7 7 12 25 12
40 l0 28 -80 0 c-79 0 -80 0 -80 -26z m116 -16 c4 -13 8 -37 9 -55 2 -38 -30
-58 -69 -43 -21 7 -24 15 -23 54 1 25 5 46 10 46 4 0 5 5 2 10 -4 6 8 10 29
10 27 0 36 -5 42 -22z"/>
<path d="M1140 470 c0 -12 7 -31 15 -44 14 -21 14 -24 0 -36 -8 -7 -15 -25
-15 -41 0 -28 1 -29 54 -29 30 0 58 4 61 10 10 17 18 107 11 134 -6 24 -10 26
-66 26 -54 0 -60 -2 -60 -20z m90 -29 c15 -38 1 -85 -27 -89 -18 -3 -20 2 -17
50 1 29 3 56 3 61 2 19 30 4 41 -22z"/>
<path d="M1384 480 c-47 -19 -38 -63 17 -89 42 -20 40 -36 -5 -36 -40 0 -57
-12 -36 -25 26 -16 76 -11 94 9 24 27 13 54 -29 74 -19 9 -35 21 -35 26 0 17
19 22 39 12 14 -8 22 -7 31 4 10 12 7 16 -15 25 -30 12 -33 12 -61 0z"/>
<path d="M1594 480 c-12 -5 -31 -21 -42 -37 l-21 -28 -1 33 c0 24 -4 32 -17
32 -16 0 -18 -9 -15 -80 3 -61 7 -80 18 -80 9 0 14 11 14 29 0 44 15 46 39 6
13 -22 28 -35 41 -35 20 0 19 3 -10 44 -16 25 -30 48 -30 52 0 4 12 20 27 36
30 31 29 40 -3 28z"/>
<path d="M1850 405 l0 -85 55 0 c42 0 55 3 55 15 0 11 -11 15 -40 15 l-40 0 0
64 c0 48 -4 65 -15 70 -13 4 -15 -8 -15 -79z"/>
<path d="M1950 482 c0 -4 12 -42 26 -84 20 -60 30 -78 44 -78 14 0 24 18 44
78 31 92 31 91 7 85 -12 -3 -22 -21 -31 -59 -7 -30 -16 -54 -20 -54 -4 0 -13
24 -20 54 -9 38 -19 56 -31 59 -11 3 -19 2 -19 -1z"/>
<path d="M1650 400 c0 -64 3 -80 15 -80 12 0 15 16 15 80 0 64 -3 80 -15 80
-12 0 -15 -16 -15 -80z"/>
<path d="M1718 400 l4 -80 54 0 c41 0 54 4 54 15 0 11 -11 15 -40 15 l-40 0 0
65 c0 55 -3 65 -17 65 -16 0 -18 -9 -15 -80z"/>
<path d="M2110 400 l0 -80 60 0 c47 0 60 3 60 15 0 11 -12 15 -46 15 -38 0
-45 3 -42 18 2 12 14 18 41 20 53 5 51 32 -3 32 -57 0 -55 28 2 32 23 2 43 9
46 16 3 9 -13 12 -57 12 l-61 0 0 -80z"/>
<path d="M2255 400 c0 -70 2 -80 18 -80 12 0 17 8 17 30 0 19 5 30 14 30 7 0
19 -13 26 -30 8 -19 20 -30 32 -30 19 0 19 1 -2 35 -12 19 -17 35 -11 35 6 0
15 9 21 21 9 16 8 26 -5 45 -13 20 -24 24 -63 24 l-47 0 0 -80z m85 29 c0 -14
-7 -19 -25 -19 -20 0 -25 5 -25 24 0 19 4 22 25 18 16 -3 25 -11 25 -23z"/>
<path d="M2405 400 c0 -70 2 -80 18 -80 12 0 17 8 17 30 0 19 5 30 14 30 7 0
19 -13 26 -30 8 -19 20 -30 32 -30 20 0 20 0 0 31 -19 31 -19 32 -1 50 40 40
11 79 -59 79 l-47 0 0 -80z m85 29 c0 -14 -7 -19 -25 -19 -20 0 -25 5 -25 24
0 19 4 22 25 18 16 -3 25 -11 25 -23z"/>
<path d="M2595 468 c-2 -7 -15 -43 -29 -80 -23 -64 -24 -68 -7 -68 10 0 21 9
24 20 4 14 14 20 35 20 21 0 31 -6 35 -20 3 -11 13 -20 22 -20 9 0 15 6 13 13
-3 6 -15 42 -28 80 -18 50 -28 67 -42 67 -10 0 -21 -6 -23 -12z m37 -62 c2
-12 -3 -20 -14 -21 -20 -4 -21 -1 -12 33 7 25 20 19 26 -12z"/>
<path d="M490 399 c0 -55 3 -64 30 -89 17 -16 51 -35 77 -44 46 -16 157 -21
200 -10 l22 6 -19 39 c-11 21 -20 48 -20 60 0 16 -4 19 -17 14 -48 -21 -72
-16 -171 34 l-102 51 0 -61z m222 -78 c32 4 47 -2 42 -16 -10 -24 -110 -20
-164 8 -49 25 -66 46 -57 71 6 14 17 11 86 -24 44 -23 86 -40 93 -39z"/>
<path d="M840 292 c0 -22 76 -80 135 -102 l26 -10 -19 27 c-10 16 -24 42 -29
58 -9 28 -14 30 -61 33 -29 2 -52 -1 -52 -6z"/>
<path d="M976 278 c16 -54 45 -98 64 -98 19 0 48 44 64 98 7 21 5 22 -64 22
-69 0 -71 -1 -64 -22z m84 -23 c0 -16 -27 -32 -37 -22 -3 4 -3 13 0 22 8 20
37 20 37 0z"/>
<path d="M1130 283 c0 -9 -11 -36 -25 -60 l-26 -43 28 11 c41 15 100 58 118
85 l15 24 -55 0 c-45 0 -55 -3 -55 -17z"/>
</g>
</svg>
